<svg id="Layer_1" data-name="Layer 1" xmlns="http://www.w3.org/2000/svg" viewBox="0 0 26.75 26.75"><defs><style>.cls-1{fill:#ed2024;}</style></defs><title>low</title><path class="cls-1" d="M16.3,30.33A13.41,13.41,0,0,1,4,22.16,13.35,13.35,0,0,1,6.85,7.5a13.38,13.38,0,0,1,18.91,0,13.38,13.38,0,0,1,2.87,14.66A13.36,13.36,0,0,1,16.3,30.33Zm0-25.82A12.45,12.45,0,1,0,28.75,17,12.46,12.46,0,0,0,16.3,4.51Zm3.36,18.67a.66.66,0,0,1,0-.13,5.58,5.58,0,0,0-.33-1.58c-.05-.2.21-.13.11-.31-.54-.94-.5-.5-.66-.66a1.17,1.17,0,0,0-.77-.31v.19c.24,0,.58.08.79.63a5.25,5.25,0,0,1,.17.52,5.74,5.74,0,0,1,.35,1.54s0,.08,0,.14a10.67,10.67,0,0,1,.05,1.09,1.48,1.48,0,0,1-.23.93.22.22,0,0,1-.19.08c-.31,0-.34-.57-.35-1.37s0-1.32-.34-1.61a.51.51,0,0,0-.39-.16V20a.26.26,0,0,0-.26-.25H14.85a.25.25,0,0,0-.25.25v5.61h-.08a.13.13,0,0,0-.13.13v.08a.13.13,0,0,0,.13.13h3.42a.13.13,0,0,0,.13-.13v-.08a.13.13,0,0,0-.13-.13h-.08a0,0,0,0,0,0,0V22.51a.23.23,0,0,1,.16.06c.21.2.22.83.23,1.38A6.13,6.13,0,0,0,18.34,25c.09.4.3.6.61.61h0a.57.57,0,0,0,.43-.19,1.81,1.81,0,0,0,.32-1.15A11.09,11.09,0,0,0,19.66,23.18Zm-2.31-1.34H15.11V20.23h2.24ZM14.84,6.12l-.49.07.47,3,.49-.08Zm-1.68.36-.47.15.93,2.87.47-.15Zm-1.6.62-.44.23L12.49,10l.44-.22ZM10.08,8l-.41.3,1.78,2.44.4-.3ZM8.75,9.05l-.36.35,2.14,2.13.35-.35ZM7.6,10.33l-.29.4L9.75,12.5l.29-.4Zm-.93,1.44-.22.44,2.68,1.37.23-.44ZM6,13.34l-.15.48,2.86.93.16-.48ZM5.54,15l-.08.49,3,.48.08-.5Zm-.9,1.52v.88H8.38v-.88Zm19.58,0v.88H28v-.88ZM15.86,9.05h.89V5.3h-.89Zm11.29,6.44L27.07,15l-3,.47.08.49Zm-.37-1.67-.15-.48-2.87.93.16.48Zm-.62-1.61-.22-.44-2.69,1.37.23.44Zm-.86-1.48-.29-.4L22.57,12.1l.29.4ZM24.22,9.4l-.36-.35-2.13,2.13.35.35ZM22.94,8.26,22.53,8,20.76,10.4l.4.29Zm-1.45-.93-.44-.23L19.68,9.79l.44.22Zm-1.57-.7-.47-.15-.93,2.87L19,9.5Zm-1.66-.44-.49-.07-.47,3,.49.08ZM16.32,16l-5.87-1.9-.28.84,5.88,1.9a1.21,1.21,0,0,0,.83,1.06,1.2,1.2,0,1,0-.56-1.9Z" transform="translate(-2.93 -3.59)"/></svg>