<svg id="Layer_1" data-name="Layer 1" xmlns="http://www.w3.org/2000/svg" viewBox="0 0 23.28 20.6"><defs><style>.cls-1{fill:none;stroke:#000;stroke-miterlimit:10;}.cls-2{font-size:5.98px;fill:#fff;font-family:MyriadPro-Regular, Myriad Pro;}.cls-3{fill:#ed2024;}</style></defs><title>bad</title><path class="cls-1" d="M3.34,9.83" transform="translate(-5.44 -4.9)"/><text class="cls-2" transform="translate(10.56 15.07)">?</text><path class="cls-3" d="M28.28,10.24h-3v-.19a1.43,1.43,0,0,0-1.51-1.33H22.47A1.43,1.43,0,0,0,21,10.05v1h-.87v-1a1.42,1.42,0,0,0-1.5-1.33h-1.3a1.43,1.43,0,0,0-1.51,1.33v1h-.86v-1a1.43,1.43,0,0,0-1.51-1.33H12.12a1.43,1.43,0,0,0-1.51,1.33v1H9.75v-1A1.43,1.43,0,0,0,8.24,8.72H7a1.43,1.43,0,0,0-1.51,1.33V24.17A1.43,1.43,0,0,0,7,25.5H8.24a1.43,1.43,0,0,0,1.51-1.33V22.45h.86v1.72a1.43,1.43,0,0,0,1.51,1.33h1.29a1.43,1.43,0,0,0,1.51-1.33V22.45h.86v1.72a1.43,1.43,0,0,0,1.51,1.33h1.3a1.42,1.42,0,0,0,1.5-1.33V22.45H21v1.72a1.43,1.43,0,0,0,1.51,1.33h1.29a1.43,1.43,0,0,0,1.51-1.33V12.53h3a.42.42,0,0,0,.44-.38V10.62A.42.42,0,0,0,28.28,10.24ZM9.75,21.69V11.77h.86v9.92Zm5.17,0V11.77h.86v9.92Zm5.17,0V11.77H21v9.92Z" transform="translate(-5.44 -4.9)"/><path class="cls-3" d="M12.23,7.57a.41.41,0,0,0,.43.38.41.41,0,0,0,.43-.38.31.31,0,0,1,.07-.21,1.15,1.15,0,0,0,0-1.1.31.31,0,0,1-.07-.21.32.32,0,0,1,.07-.22,1.05,1.05,0,0,0,.14-.55.43.43,0,0,0-.86,0,.38.38,0,0,1-.06.22,1,1,0,0,0-.15.55,1,1,0,0,0,.15.54.43.43,0,0,1,0,.44A1,1,0,0,0,12.23,7.57Z" transform="translate(-5.44 -4.9)"/><path class="cls-3" d="M14.82,7.57a.43.43,0,0,0,.86,0,.37.37,0,0,1,.06-.21,1.08,1.08,0,0,0,0-1.1.37.37,0,0,1-.06-.21.38.38,0,0,1,.06-.22,1,1,0,0,0,.15-.55.41.41,0,0,0-.43-.38.41.41,0,0,0-.43.38A.32.32,0,0,1,15,5.5a1.05,1.05,0,0,0-.14.55,1,1,0,0,0,.14.54A.38.38,0,0,1,15,7,1,1,0,0,0,14.82,7.57Z" transform="translate(-5.44 -4.9)"/><path class="cls-3" d="M17.4,7.57a.44.44,0,0,0,.87,0,.31.31,0,0,1,.06-.21,1.15,1.15,0,0,0,0-1.1.31.31,0,0,1-.06-.21.32.32,0,0,1,.06-.22,1.05,1.05,0,0,0,.14-.55.43.43,0,0,0-.86,0,.38.38,0,0,1-.06.22,1,1,0,0,0-.15.55,1,1,0,0,0,.15.54.43.43,0,0,1,0,.44A1,1,0,0,0,17.4,7.57Z" transform="translate(-5.44 -4.9)"/></svg>