<svg id="Layer_1" data-name="Layer 1" xmlns="http://www.w3.org/2000/svg" viewBox="0 0 19.31 31.07"><defs><style>.cls-1{fill:#f7ec13;}.cls-2{fill:#010101;}.cls-3{isolation:isolate;}</style></defs><title>medium</title><path class="cls-1" d="M19.17,26.05a.89.89,0,0,1-.3-.67V18.73H17v6.65a.89.89,0,0,1-.3.67,1.87,1.87,0,1,0,2.48,0Z" transform="translate(-1.78 -9.58)"/><path class="cls-2" d="M20.2,25.41V11.85a2.27,2.27,0,1,0-4.54,0V25.41a3.21,3.21,0,0,0-.89,2.2,3.16,3.16,0,1,0,5.43-2.2ZM17.93,29.8A2.19,2.19,0,0,1,16.47,26a.46.46,0,0,0,.17-.36V11.85a1.3,1.3,0,0,1,1.29-1.3,1.31,1.31,0,0,1,1.3,1.3v1.33h-.6a.29.29,0,1,0,0,.57h.6v.63h-.6a.29.29,0,0,0-.29.28.28.28,0,0,0,.29.28h.6v.64h-.6a.29.29,0,0,0-.29.28.28.28,0,0,0,.29.28h.6v.64h-.6a.28.28,0,0,0-.29.28.29.29,0,0,0,.29.28h.6V18h-.6a.28.28,0,0,0-.29.28.29.29,0,0,0,.29.28h.6v7.08a.45.45,0,0,0,.16.36,2.21,2.21,0,0,1,.73,1.63A2.19,2.19,0,0,1,17.93,29.8Z" transform="translate(-1.78 -9.58)"/><text class="cls-3" x="-1.78" y="-9.58"/><text class="cls-3" x="-1.78" y="-9.58"/></svg>