<svg id="Layer_1" data-name="Layer 1" xmlns="http://www.w3.org/2000/svg" viewBox="0 0 8.09 27.14"><defs><style>.cls-1{fill:#ed2024;}</style></defs><title>low</title><path class="cls-1" d="M19,25.45a1.13,1.13,0,0,1-.37-.84V16.39H16.32v8.22a1.13,1.13,0,0,1-.37.84,2.29,2.29,0,0,0-.77,1.72,2.31,2.31,0,1,0,4.62,0A2.29,2.29,0,0,0,19,25.45Z" transform="translate(-13.44 -4.07)"/><path class="cls-1" d="M20.39,24.35V7a2.9,2.9,0,0,0-5.8,0V24.35a4.05,4.05,0,1,0,5.8,0ZM17.49,30a2.8,2.8,0,0,1-1.87-4.89.64.64,0,0,0,.21-.47V7a1.66,1.66,0,1,1,3.32,0V8.68h-.77a.36.36,0,1,0,0,.72h.77v.82h-.77a.36.36,0,0,0,0,.72h.77v.81h-.77a.36.36,0,1,0,0,.72h.77v.82h-.77a.36.36,0,0,0,0,.72h.77v.81h-.77a.36.36,0,0,0-.36.36.36.36,0,0,0,.36.36h.77v9.08a.6.6,0,0,0,.21.46A2.8,2.8,0,0,1,17.49,30Z" transform="translate(-13.44 -4.07)"/></svg>