<svg id="Layer_1" data-name="Layer 1" xmlns="http://www.w3.org/2000/svg" viewBox="0 0 18.18 18.18"><defs><style>.cls-1{fill:#ed2024;}</style></defs><title>low</title><path class="cls-1" d="M16.37,19v0a.22.22,0,0,0-.23-.25h-.22v.51h.22A.21.21,0,0,0,16.37,19Z" transform="translate(-7.26 -5.64)"/><path class="cls-1" d="M12.86,20.21h7V18.15H12.86ZM17,18.6a.12.12,0,0,1,.13-.14c.1,0,.14,0,.21.15l.26.47.25-.47c.07-.13.12-.15.22-.15a.12.12,0,0,1,.13.14v1.31c0,.05-.06.08-.13.08S18,20,18,19.91V19l-.25.43a.11.11,0,0,1-.1.06.11.11,0,0,1-.09-.06L17.28,19v.92c0,.05-.07.08-.13.08S17,20,17,19.91Zm-1.38-.05c0-.05,0-.08.1-.08h.42a.41.41,0,0,1,.47.46v0a.44.44,0,0,1-.49.48h-.22v.48c0,.05-.08.08-.14.08s-.14,0-.14-.08Zm-1.4,0a.07.07,0,0,1,.07-.08h.43c.27,0,.49.1.49.43a.39.39,0,0,1-.27.42l.27.51a0,0,0,0,1,0,0,.17.17,0,0,1-.17.14.1.1,0,0,1-.09-.06l-.3-.58H14.5v.55c0,.05-.06.08-.13.08s-.13,0-.13-.08Z" transform="translate(-7.26 -5.64)"/><path class="cls-1" d="M15,18.92a.2.2,0,0,0-.22-.23H14.5v.46h.24C14.87,19.15,15,19.09,15,18.92Z" transform="translate(-7.26 -5.64)"/><path class="cls-1" d="M16.34,23.82A9.11,9.11,0,0,1,8,11.19,9.08,9.08,0,0,1,19.88,6.36a9,9,0,0,1,2.89,2,9.11,9.11,0,0,1,1.95,10,9.27,9.27,0,0,1-1.95,2.89,9,9,0,0,1-6.43,2.66Zm0-17.55a8.46,8.46,0,1,0,8.46,8.46,8.47,8.47,0,0,0-8.46-8.46Zm-1,1.09L15,7.42l.32,2,.34,0Zm-1.14.25-.32.11.63,1.94.32-.1ZM13.12,8l-.3.16L13.75,10l.3-.15Zm-1,.59-.27.2L13,10.48l.28-.2Zm-.9.74L11,9.6,12.42,11l.24-.23Zm-.78.87-.2.27,1.66,1.2.2-.27Zm-.63,1-.16.3,1.83.93.15-.3Zm-.47,1.06-.11.33,1.95.63.11-.32ZM9,13.4l0,.34,2,.32.05-.34Zm-.61,1V15H11v-.6Zm13.3,0V15h2.54v-.6ZM16,9.36h.6V6.81H16Zm7.67,4.38-.05-.34-2,.32.06.34Zm-.24-1.14-.11-.33-1.95.64.11.32ZM23,11.51l-.15-.3-1.83.93.16.3Zm-.58-1-.2-.27-1.66,1.2.2.27Zm-.74-.9-.24-.24L20,10.81l.24.23Zm-.87-.78-.27-.2-1.21,1.66.28.2Zm-1-.63L19.57,8l-.93,1.83.3.15ZM18.8,7.72l-.32-.11-.63,2,.32.1Zm-1.13-.3-.33-.06-.32,2,.33,0Zm-.21,7.32-4.2,0v.6l4.2,0a.81.81,0,0,0,.76.51.82.82,0,0,0,0-1.63A.79.79,0,0,0,17.46,14.74Z" transform="translate(-7.26 -5.64)"/></svg>