<svg id="Layer_1" data-name="Layer 1" xmlns="http://www.w3.org/2000/svg" viewBox="0 0 27.33 32.8"><defs><style>.cls-1{fill:none;stroke:#000;stroke-miterlimit:10;}.cls-2{fill:#6abd45;}.cls-3{isolation:isolate;}</style></defs><title>good</title><path class="cls-1" d="M3.34,9.83" transform="translate(-3.34 -3.83)"/><path class="cls-2" d="M12.05,13a.23.23,0,0,1-.19-.09A2.82,2.82,0,0,1,11.64,9a1.86,1.86,0,0,0,.3-.69.83.83,0,0,0-.11-.76.3.3,0,0,1,0-.44.31.31,0,0,1,.44,0,1.43,1.43,0,0,1,.27,1.32,2.24,2.24,0,0,1-.38.93,2.19,2.19,0,0,0,.11,3,.31.31,0,0,1,0,.44A.35.35,0,0,1,12.05,13Z" transform="translate(-3.34 -3.83)"/><path class="cls-2" d="M8.41,13a.23.23,0,0,1-.19-.09A2.82,2.82,0,0,1,8,9a2.26,2.26,0,0,0,.3-.69.83.83,0,0,0-.11-.76.3.3,0,0,1,0-.44.31.31,0,0,1,.44,0,1.43,1.43,0,0,1,.27,1.32,2.38,2.38,0,0,1-.38.93,2.19,2.19,0,0,0,.11,3,.31.31,0,0,1,0,.44A.39.39,0,0,1,8.41,13Z" transform="translate(-3.34 -3.83)"/><path class="cls-2" d="M15.64,13a.23.23,0,0,1-.19-.09A2.81,2.81,0,0,1,15.23,9a2.26,2.26,0,0,0,.3-.69.83.83,0,0,0-.11-.76.3.3,0,0,1,0-.44.3.3,0,0,1,.43,0,1.44,1.44,0,0,1,.28,1.32,2.25,2.25,0,0,1-.39.93,2.2,2.2,0,0,0,.11,3,.3.3,0,0,1,0,.44A.45.45,0,0,1,15.64,13Z" transform="translate(-3.34 -3.83)"/><path class="cls-2" d="M14.73,21.43H5.64a2.31,2.31,0,0,1-2.3-2.3v-13a2.31,2.31,0,0,1,2.3-2.3H17.86a2.32,2.32,0,0,1,2.3,2.3v7.61a.31.31,0,0,1-.61,0V6.13a1.66,1.66,0,0,0-1.67-1.67H5.64A1.68,1.68,0,0,0,4,6.13v13A1.65,1.65,0,0,0,5.64,20.8h9.09a.3.3,0,0,1,.3.31A.27.27,0,0,1,14.73,21.43Z" transform="translate(-3.34 -3.83)"/><path class="cls-2" d="M14.73,16.29h-6a.31.31,0,0,1,0-.61h6A.3.3,0,0,1,15,16C15.06,16.15,14.93,16.29,14.73,16.29Z" transform="translate(-3.34 -3.83)"/><path class="cls-2" d="M14.73,18.94h-6a.29.29,0,0,1-.3-.3.3.3,0,0,1,.3-.3h6a.3.3,0,0,1,.3.3A.28.28,0,0,1,14.73,18.94Z" transform="translate(-3.34 -3.83)"/><path class="cls-2" d="M16.51,25.46a.35.35,0,0,1-.3-.19,7.29,7.29,0,0,1,.17-5.72,6.78,6.78,0,0,1,2.38-2.8,6.26,6.26,0,0,1,1.18-.6.3.3,0,0,1,.41.16.3.3,0,0,1-.17.42,8.9,8.9,0,0,0-1.09.57A6.26,6.26,0,0,0,17,19.82a6.65,6.65,0,0,0-.16,5.23.32.32,0,0,1-.17.41Z" transform="translate(-3.34 -3.83)"/><path class="cls-2" d="M22.29,16.18a.32.32,0,0,1-.3-.25l-.19-.85-.85.19a.32.32,0,0,1-.38-.24.33.33,0,0,1,.24-.39l1.45-.32.33,1.45a.32.32,0,0,1-.24.38S22.32,16.18,22.29,16.18Z" transform="translate(-3.34 -3.83)"/><path class="cls-2" d="M22.73,29.79a6.65,6.65,0,0,1-3-.69,12.63,12.63,0,0,1-1.09-.68A.32.32,0,0,1,19,27.9a6.28,6.28,0,0,0,1,.65,6,6,0,0,0,3.25.61,6.52,6.52,0,0,0,4.6-2.5.32.32,0,0,1,.44-.05.31.31,0,0,1,.06.44,7.36,7.36,0,0,1-5.07,2.71Z" transform="translate(-3.34 -3.83)"/><path class="cls-2" d="M17.14,28.44a.24.24,0,0,1-.22-.11l-1-1.09,1.1-1a.3.3,0,0,1,.43,0,.31.31,0,0,1,0,.44l-.63.58.57.63a.29.29,0,0,1,0,.43A.21.21,0,0,1,17.14,28.44Z" transform="translate(-3.34 -3.83)"/><path class="cls-2" d="M29.55,24h0a.3.3,0,0,1-.27-.35l0-.14a7.39,7.39,0,0,0,.06-1.37A6.13,6.13,0,0,0,28.2,19a6.57,6.57,0,0,0-4.46-2.74.32.32,0,0,1-.27-.35.33.33,0,0,1,.35-.28,7.24,7.24,0,0,1,4.88,3,6.76,6.76,0,0,1,1.23,3.45,13,13,0,0,1-.05,1.46l0,.13A.3.3,0,0,1,29.55,24Z" transform="translate(-3.34 -3.83)"/><path class="cls-2" d="M30.26,26.34l-1.43-.44a.34.34,0,0,1-.21-.39A.32.32,0,0,1,29,25.3l.82.24.25-.82a.33.33,0,0,1,.38-.22.34.34,0,0,1,.22.38Z" transform="translate(-3.34 -3.83)"/><path class="cls-2" d="M21.36,24.5a1.86,1.86,0,0,1-1.86-1.86v-2a1.86,1.86,0,0,1,1.86-1.86,1.84,1.84,0,0,1,1.86,1.86v2A1.84,1.84,0,0,1,21.36,24.5Zm0-5.09a1.23,1.23,0,0,0-1.23,1.23v2a1.23,1.23,0,1,0,2.46,0v-2A1.23,1.23,0,0,0,21.36,19.41Z" transform="translate(-3.34 -3.83)"/><path class="cls-2" d="M26,26.23H24.32a.34.34,0,0,1-.25-.11.44.44,0,0,1-.08-.25,2.41,2.41,0,0,1,.6-1.18,1.15,1.15,0,0,1,.22-.22,3.07,3.07,0,0,0,.49-.6.89.89,0,0,0,.11-.79.37.37,0,0,0-.24-.22.47.47,0,0,0-.5.05l0,0a.91.91,0,0,0-.17.36.32.32,0,0,1-.38.22.31.31,0,0,1-.22-.39c.14-.44.3-.63.41-.68a1.08,1.08,0,0,1,1.18-.14,1.19,1.19,0,0,1,.52.52,1.53,1.53,0,0,1-.11,1.4,6,6,0,0,1-.58.71c-.05.08-.13.14-.19.22a2.21,2.21,0,0,0-.33.49H26a.31.31,0,0,1,.31.3A.36.36,0,0,1,26,26.23Z" transform="translate(-3.34 -3.83)"/><text class="cls-3" x="-3.34" y="-3.83"/><text class="cls-3" x="-3.34" y="-3.83"/></svg>