<svg id="Layer_1" data-name="Layer 1" xmlns="http://www.w3.org/2000/svg" viewBox="0 0 18.18 18.18"><defs><style>.cls-1{fill:#f7ec13;}</style></defs><title>medium</title><path class="cls-1" d="M16.34,23.82A9.11,9.11,0,0,1,8,11.19,9.08,9.08,0,0,1,19.88,6.36a9,9,0,0,1,2.89,2,9.11,9.11,0,0,1,1.95,10,9.27,9.27,0,0,1-1.95,2.89,9,9,0,0,1-6.43,2.66Zm0-17.55a8.46,8.46,0,1,0,8.46,8.46,8.47,8.47,0,0,0-8.46-8.46ZM18.62,19a.22.22,0,0,0,0-.09,3.4,3.4,0,0,0-.22-1.07c0-.14.15-.09.08-.21-.37-.64-.34-.34-.45-.45a.76.76,0,0,0-.53-.21v.13c.17,0,.4.05.54.43a2.06,2.06,0,0,1,.12.35,4,4,0,0,1,.24,1V19a5,5,0,0,1,0,.74,1,1,0,0,1-.16.63.18.18,0,0,1-.13.06c-.21,0-.23-.39-.24-.93s0-.9-.23-1.1a.41.41,0,0,0-.27-.11V16.83a.16.16,0,0,0-.17-.17H15.36a.17.17,0,0,0-.18.17v3.81h0a.08.08,0,0,0-.08.09v.05a.08.08,0,0,0,.08.09h2.32a.09.09,0,0,0,.09-.09v-.05a.09.09,0,0,0-.09-.09H17.4V18.5a.17.17,0,0,1,.12.05c.14.13.15.56.15.93a4.18,4.18,0,0,0,.06.74c.06.27.2.41.41.42h0a.41.41,0,0,0,.29-.13,1.27,1.27,0,0,0,.22-.78A7.31,7.31,0,0,0,18.62,19Zm-1.56-.91H15.53V17h1.53ZM15.35,7.36,15,7.42l.32,2,.34,0Zm-1.14.25-.32.11.63,1.94.32-.1ZM13.12,8l-.3.16L13.75,10l.3-.15Zm-1,.59-.27.2L13,10.48l.28-.2Zm-.9.74L11,9.6,12.42,11l.24-.23Zm-.78.87-.2.27,1.66,1.2.2-.27Zm-.63,1-.16.3,1.83.93.15-.3Zm-.47,1.06-.11.33,1.95.63.11-.32ZM9,13.4l0,.34,2,.32.05-.34Zm-.61,1V15H11v-.6Zm13.3,0V15h2.54v-.6ZM16,9.36h.6V6.81H16Zm7.67,4.38-.05-.34-2,.32.06.34Zm-.24-1.14-.11-.33-1.95.64.11.32ZM23,11.51l-.15-.3-1.83.93.16.3Zm-.58-1-.2-.27-1.66,1.2.2.27Zm-.74-.9-.24-.24L20,10.81l.24.23Zm-.87-.78-.27-.2-1.21,1.66.28.2Zm-1-.63L19.57,8l-.93,1.83.3.15ZM18.8,7.72l-.32-.11-.63,2,.32.1Zm-1.13-.3-.33-.06-.32,2,.33,0Zm-1,6.66.15-4.19-.6,0-.15,4.2a.81.81,0,0,0,.25,1.58.83.83,0,0,0,.84-.79A.81.81,0,0,0,16.67,14.08Z" transform="translate(-7.26 -5.64)"/></svg>