<svg id="Layer_1" data-name="Layer 1" xmlns="http://www.w3.org/2000/svg" viewBox="0 0 19.96 23.21"><defs><style>.cls-1{fill:#ed2024;}</style></defs><title>low</title><path class="cls-1" d="M7.86,3.91a.66.66,0,0,0-.58.65v21.9a.65.65,0,0,0,.64.65.64.64,0,0,0,.65-.63V4.56a.65.65,0,0,0-.63-.66Zm2.61,0a.64.64,0,0,0-.61.64v9.66a.63.63,0,0,0,.65.64h.09l16.1-2.58a.64.64,0,0,0,.55-.63V7.14a.65.65,0,0,0-.55-.64L10.6,3.93Zm.68,1.4,5.15.82v6.5l-5.15.83Zm6.44,1L21.45,7v4.87l-3.86.61Zm5.15.83L26,7.68V11.1l-3.22.52Z" transform="translate(-7.28 -3.9)"/></svg>