<svg id="Layer_1" data-name="Layer 1" xmlns="http://www.w3.org/2000/svg" viewBox="0 0 19.04 14.17"><defs><style>.cls-1{fill:#6abd45;}</style></defs><title>high</title><path class="cls-1" d="M25.52,22.78v1.63a.3.3,0,0,1-.3.3H6.78a.31.31,0,0,1-.3-.3V22.78a.3.3,0,0,1,.3-.3H25.22A.29.29,0,0,1,25.52,22.78Z" transform="translate(-6.48 -10.53)"/><path class="cls-1" d="M25.52,12.71v1.63a.3.3,0,0,1-.3.3H6.78a.31.31,0,0,1-.3-.3V12.71a.3.3,0,0,1,.3-.3H25.22A.29.29,0,0,1,25.52,12.71Z" transform="translate(-6.48 -10.53)"/><path class="cls-1" d="M23.31,10.83v1H20.85v-1a.3.3,0,0,1,.29-.3H23A.3.3,0,0,1,23.31,10.83Z" transform="translate(-6.48 -10.53)"/><path class="cls-1" d="M11.16,10.83v1H8.69v-1a.31.31,0,0,1,.3-.3h1.87A.31.31,0,0,1,11.16,10.83Z" transform="translate(-6.48 -10.53)"/><path class="cls-1" d="M16,18.37a.28.28,0,0,1,0-.25l.52-1.27-1.69,1.64,1,.48a.3.3,0,0,1,.14.39l-.41.88,1.61-1.47-1-.25A.32.32,0,0,1,16,18.37Z" transform="translate(-6.48 -10.53)"/><path class="cls-1" d="M7.33,15.23v6.65H24.68V15.23ZM12.65,19h-2v-.6h2Zm5.29-.19L14.8,21.7a.32.32,0,0,1-.2.08.41.41,0,0,1-.18-.05.31.31,0,0,1-.09-.37l.94-2-1.13-.53a.32.32,0,0,1-.17-.22.31.31,0,0,1,.09-.26l3-3a.29.29,0,0,1,.37,0,.3.3,0,0,1,.11.36L16.63,18l1.18.29a.29.29,0,0,1,.21.22A.28.28,0,0,1,17.94,18.83Zm3.38.19h-.5v.68h-.6V19h-.87v-.6h.87v-.69h.6v.69h.5Z" transform="translate(-6.48 -10.53)"/></svg>