<svg id="Layer_1" data-name="Layer 1" xmlns="http://www.w3.org/2000/svg" viewBox="0 0 28.91 10.71"><defs><style>.cls-1{fill:none;stroke:#000;stroke-miterlimit:10;}.cls-2{font-size:5.98px;fill:#fff;font-family:MyriadPro-Regular, Myriad Pro;}</style></defs><title>example-car</title><path class="cls-1" d="M3.34,9.83" transform="translate(-1.65 -11.02)"/><path d="M30,16.47a14.33,14.33,0,0,1-.63-2.24l.67-.86S22.62,11.31,18.94,11c-2.28-.17-6.32,1-8.09,1.73-1,.43-7.25,2.42-7.82,2.65s-1.34.69-1.38,3.15,2.44,2,2.44,2h.15a2.83,2.83,0,0,1-.19-1,3,3,0,1,1,5.74,1l12.54-.05a2.95,2.95,0,1,1,5.75-.94,2.82,2.82,0,0,1-.15.92c.17,0,1.26,0,1.63-.05s.84-.73,1-1.46A5.12,5.12,0,0,0,30,16.47ZM2.8,16.88c-.09-.36.47-.86.47-.86l1.34.13S2.9,17.25,2.8,16.88ZM8,15.24s6.31-3.07,9.5-3.2L17,14.69Zm17.11-1.07-7.33.47.42-2.58a57.26,57.26,0,0,1,7.53,1.13Z" transform="translate(-1.65 -11.02)"/><path d="M7,17.34a2.2,2.2,0,0,0-2.22,2.19,2.13,2.13,0,0,0,.25,1,2.23,2.23,0,0,0,4,0,2.18,2.18,0,0,0-2-3.18Z" transform="translate(-1.65 -11.02)"/><path d="M25.13,17.34a2.2,2.2,0,0,0-2.22,2.19,2.12,2.12,0,0,0,.21.94,2.23,2.23,0,0,0,4,0,2.16,2.16,0,0,0,.2-.91A2.2,2.2,0,0,0,25.13,17.34Z" transform="translate(-1.65 -11.02)"/><text class="cls-2" transform="translate(14.35 8.95)">?</text></svg>