<?xml version="1.0" encoding="utf-8"?>
<!-- Generator: Adobe Illustrator 23.0.2, SVG Export Plug-In . SVG Version: 6.00 Build 0)  -->
<svg version="1.1" id="Layer_1" xmlns="http://www.w3.org/2000/svg" xmlns:xlink="http://www.w3.org/1999/xlink" x="0px" y="0px"
	 viewBox="0 0 600 600" style="enable-background:new 0 0 600 600;" xml:space="preserve">
<style type="text/css">
	.st0{fill-rule:evenodd;clip-rule:evenodd;fill:#009245;}
	.st1{fill:#FFFFFF;stroke:#FFFFFF;stroke-miterlimit:10;}
	.st2{font-family:'RobotoCondensed-Bold';}
	.st3{font-size:97px;}
</style>
<path class="st0" d="M175.6,179c0-19,4-36,11-52l-9-4c-7,23-8,48-3,71h2C175.6,189,175.6,184,175.6,179z M458.6,115l-42,16
	c8,19,11,41,9,63h38C468.6,168,467.6,140,458.6,115z M400.6,40.2l-26,38c15,11,28,26,37,43l43-16C443.6,78.2,424.6,56.2,400.6,40.2z
	 M348,63.2c6,2,12,5,18,9l26-38c-24-13-51-20-79-18v38c8,1,16,2,23,5l-51,98c-9,29,35,44,44,15L348,63.2z M318.6,169.2
	c-5,15-28,7-23-8C300.6,145.2,323.6,153.2,318.6,169.2z M231,45.2l15,22c17-9,35-13,56-13v-37C275,20.2,251,30.2,231,45.2z
	 M180.6,113.2l11,4c11-19,26-34,44-45l-14-20C203.6,69.2,189.6,89.2,180.6,113.2z"/>
<text transform="matrix(1 0 0 1 115.8569 226.8569)" class="st1 st2 st3">smartOBD.</text>
</svg>
