<svg id="Layer_1" data-name="Layer 1" xmlns="http://www.w3.org/2000/svg" viewBox="0 0 28.34 28.34"><defs><style>.cls-1,.cls-2{fill:#6abd45;}.cls-2{fill-rule:evenodd;}</style></defs><title>high</title><path class="cls-1" d="M16.15,30.47a14.05,14.05,0,0,1-5.51-1.11A14.18,14.18,0,0,1,2,16.3a14.23,14.23,0,0,1,4.15-10,14.21,14.21,0,0,1,15.54-3,14.26,14.26,0,0,1,7.54,7.55,14.13,14.13,0,0,1-3,15.53,14.07,14.07,0,0,1-10,4.15Zm0-27.36A13.19,13.19,0,1,0,29.34,16.3,13.2,13.2,0,0,0,16.15,3.11ZM14.6,4.81l-.52.09.5,3.15L15.1,8Zm-1.78.39-.5.16,1,3,.5-.16Zm-1.69.65-.47.24,1.45,2.85.47-.24Zm-1.58.92-.42.31L11,9.67l.42-.32ZM8.14,7.92l-.37.37L10,10.55l.37-.37ZM6.93,9.28l-.31.42,2.59,1.88.31-.43ZM6,10.8l-.24.47,2.84,1.46.24-.48Zm-.74,1.67-.16.5,3,1,.16-.5Zm-.46,1.76-.08.52,3.15.5.08-.52Zm-1,1.6v.94h4v-.94Zm20.75,0v.94h4v-.94ZM15.69,7.92h.93V4h-.93Zm12,6.83-.08-.52-3.16.5.09.52ZM27.26,13l-.16-.5-3,1,.16.5Zm-.66-1.7-.24-.47-2.85,1.45.24.48ZM25.69,9.7l-.31-.42-2.59,1.87.31.43ZM24.54,8.29l-.38-.37L21.9,10.18l.38.37ZM23.18,7.08l-.43-.31L20.87,9.35l.43.31Zm-1.53-1-.47-.24L19.73,8.7l.47.24ZM20,5.36l-.51-.16-1,3,.5.16ZM18.23,4.9l-.52-.09L17.21,8l.52.08ZM15.3,16l6.5-.76-.11-.93-6.49.77a1.28,1.28,0,1,0,.1.92Z" transform="translate(-1.98 -2.13)"/><path class="cls-2" d="M12.59,26.68,15.28,24,12.59,21.3Zm2.69,0L18,24,15.28,21.3ZM18,21.3,20.65,24,18,26.68Z" transform="translate(-1.98 -2.13)"/></svg>